# This file uses centimeters as units for non-parametric coordinates.

mtllib cone3.mtl
g default
v 0.475529 0.448652 0.154667
v 0.404509 0.448608 0.294051
v 0.293893 0.448573 0.404667
v 0.154509 0.448551 0.475687
v 0.000000 0.448543 0.500158
v -0.154509 0.448551 0.475686
v -0.293893 0.448573 0.404667
v -0.404509 0.448608 0.294051
v -0.475528 0.448652 0.154667
v -0.500000 0.448701 0.000158
v -0.475528 0.448750 -0.154351
v -0.404509 0.448794 -0.293735
v -0.293893 0.448829 -0.404351
v -0.154509 0.448851 -0.475370
v 0.000000 0.448859 -0.499842
v 0.154508 0.448851 -0.475370
v 0.293893 0.448829 -0.404351
v 0.404509 0.448794 -0.293735
v 0.475528 0.448750 -0.154351
v 0.500000 0.448701 0.000158
v 0.000000 -0.551299 -0.000158
vt 1.100032 0.000000
vt 1.000032 0.000000
vt 1.200032 0.000000
vt 0.900031 0.000000
vt 0.800032 0.000000
vt 0.700032 0.000000
vt 0.600032 0.000000
vt 0.500032 0.000000
vt 0.400031 0.000000
vt 0.300032 0.000000
vt 0.200032 0.000000
vt 2.100032 0.000000
vt 2.000032 0.000000
vt 1.900032 0.000000
vt 1.800032 0.000000
vt 1.700032 0.000000
vt 1.600032 0.000000
vt 1.500032 0.000000
vt 1.400032 0.000000
vt 1.300032 0.000000
vt 0.500000 1.000000
vt -0.499968 0.000000
vt -0.399968 0.000000
vt -0.299968 0.000000
vt -0.199968 0.000000
vt -0.099968 0.000000
vt 0.000032 0.000000
vt 0.100032 0.000000
vn 0.000000 1.000000 0.000316
vn 0.000000 1.000000 0.000316
vn 0.000000 1.000000 0.000316
vn 0.000000 1.000000 0.000316
vn 0.000000 1.000000 0.000316
vn 0.000000 1.000000 0.000316
vn 0.000000 1.000000 0.000316
vn 0.000000 1.000000 0.000316
vn 0.000000 1.000000 0.000316
vn 0.000000 1.000000 0.000316
vn 0.000000 1.000000 0.000316
vn 0.000000 1.000000 0.000316
vn 0.000000 1.000000 0.000316
vn 0.000000 1.000000 0.000316
vn 0.000000 1.000000 0.000316
vn 0.000000 1.000000 0.000316
vn 0.000000 1.000000 0.000316
vn 0.000000 1.000000 0.000316
vn 0.000000 1.000000 0.000316
vn 0.000000 1.000000 0.000316
vn 0.000000 1.000000 0.000316
vn 0.000000 1.000000 0.000316
vn 0.000000 1.000000 0.000316
vn 0.000000 1.000000 0.000316
vn 0.000000 1.000000 0.000316
vn 0.000000 1.000000 0.000316
vn 0.000000 1.000000 0.000316
vn 0.000000 1.000000 0.000316
vn 0.000000 1.000000 0.000316
vn 0.000000 1.000000 0.000316
vn 0.000000 1.000000 0.000316
vn 0.000000 1.000000 0.000316
vn 0.000000 1.000000 0.000316
vn 0.000000 1.000000 0.000316
vn 0.000000 1.000000 0.000316
vn 0.000000 1.000000 0.000316
vn 0.000000 1.000000 0.000316
vn 0.000000 1.000000 0.000316
vn 0.000000 1.000000 0.000316
vn 0.000000 1.000000 0.000316
vn 0.000000 1.000000 0.000316
vn 0.000000 1.000000 0.000316
vn 0.000000 1.000000 0.000316
vn 0.000000 1.000000 0.000316
vn 0.000000 1.000000 0.000316
vn 0.000000 1.000000 0.000316
vn 0.000000 1.000000 0.000316
vn 0.000000 1.000000 0.000316
vn 0.000000 1.000000 0.000316
vn 0.000000 1.000000 0.000316
vn 0.000000 1.000000 0.000316
vn 0.000000 1.000000 0.000316
vn 0.000000 1.000000 0.000316
vn 0.000000 1.000000 0.000316
vn 0.850651 -0.447301 0.276251
vn 0.723607 -0.447380 0.525589
vn 0.000000 -1.000000 -0.000315
vn 0.723607 -0.447380 0.525589
vn 0.525731 -0.447443 0.723465
vn 0.000000 -1.000000 -0.000315
vn 0.525731 -0.447443 0.723465
vn 0.276393 -0.447483 0.850509
vn 0.000000 -1.000000 -0.000315
vn 0.276393 -0.447483 0.850509
vn 0.000000 -0.447497 0.894286
vn 0.000000 -1.000000 -0.000315
vn 0.000000 -0.447497 0.894286
vn -0.276393 -0.447483 0.850509
vn 0.000000 -1.000000 -0.000315
vn -0.276393 -0.447483 0.850509
vn -0.525731 -0.447443 0.723465
vn 0.000000 -1.000000 -0.000315
vn -0.525731 -0.447443 0.723465
vn -0.723607 -0.447380 0.525589
vn 0.000000 -1.000000 -0.000315
vn -0.723607 -0.447380 0.525589
vn -0.850651 -0.447301 0.276252
vn 0.000000 -1.000000 -0.000315
vn -0.850651 -0.447301 0.276252
vn -0.894427 -0.447214 -0.000141
vn 0.000000 -1.000000 -0.000315
vn -0.894427 -0.447214 -0.000141
vn -0.850651 -0.447127 -0.276534
vn 0.000000 -1.000000 -0.000315
vn -0.850651 -0.447127 -0.276534
vn -0.723607 -0.447048 -0.525872
vn 0.000000 -1.000000 -0.000315
vn -0.723607 -0.447048 -0.525872
vn -0.525731 -0.446985 -0.723748
vn 0.000000 -1.000000 -0.000315
vn -0.525731 -0.446985 -0.723748
vn -0.276393 -0.446945 -0.850792
vn 0.000000 -1.000000 -0.000315
vn -0.276393 -0.446945 -0.850792
vn 0.000000 -0.446931 -0.894568
vn 0.000000 -1.000000 -0.000315
vn 0.000000 -0.446931 -0.894568
vn 0.276393 -0.446945 -0.850792
vn 0.000000 -1.000000 -0.000315
vn 0.276393 -0.446945 -0.850792
vn 0.525731 -0.446985 -0.723748
vn 0.000000 -1.000000 -0.000315
vn 0.525731 -0.446985 -0.723748
vn 0.723607 -0.447048 -0.525872
vn 0.000000 -1.000000 -0.000315
vn 0.723607 -0.447048 -0.525872
vn 0.850651 -0.447127 -0.276534
vn 0.000000 -1.000000 -0.000315
vn 0.850651 -0.447127 -0.276534
vn 0.894427 -0.447214 -0.000142
vn 0.000000 -1.000000 -0.000315
vn 0.894427 -0.447214 -0.000142
vn 0.850651 -0.447301 0.276251
vn 0.000000 -1.000000 -0.000315
s off
g cone:Mesh
usemtl initialShadingGroup
f 1/1/1 20/2/2 2/3/3
f 20/2/4 19/4/5 2/3/6
f 19/4/7 18/5/8 2/3/9
f 18/5/10 17/6/11 2/3/12
f 17/6/13 16/7/14 2/3/15
f 16/7/16 15/8/17 2/3/18
f 15/8/19 14/9/20 2/3/21
f 14/9/22 13/10/23 2/3/24
f 13/10/25 12/11/26 2/3/27
f 12/11/28 11/12/29 2/3/30
f 11/12/31 10/13/32 2/3/33
f 10/13/34 9/14/35 2/3/36
f 9/14/37 8/15/38 2/3/39
f 8/15/40 7/16/41 2/3/42
f 7/16/43 6/17/44 2/3/45
f 6/17/46 5/18/47 2/3/48
f 5/18/49 4/19/50 2/3/51
f 4/19/52 3/20/53 2/3/54
f 1/1/55 2/3/56 21/21/57
f 2/3/58 3/20/59 21/21/60
f 3/20/61 4/19/62 21/21/63
f 4/19/64 5/18/65 21/21/66
f 5/22/67 6/23/68 21/21/69
f 6/23/70 7/24/71 21/21/72
f 7/24/73 8/25/74 21/21/75
f 8/25/76 9/26/77 21/21/78
f 9/26/79 10/27/80 21/21/81
f 10/27/82 11/28/83 21/21/84
f 11/28/85 12/11/86 21/21/87
f 12/11/88 13/10/89 21/21/90
f 13/10/91 14/9/92 21/21/93
f 14/9/94 15/8/95 21/21/96
f 15/8/97 16/7/98 21/21/99
f 16/7/100 17/6/101 21/21/102
f 17/6/103 18/5/104 21/21/105
f 18/5/106 19/4/107 21/21/108
f 19/4/109 20/2/110 21/21/111
f 20/2/112 1/1/113 21/21/114
