# 3ds Max Wavefront OBJ Exporter v0.97b - (c)2007 guruware
# File Created: 10.04.2016 12:37:33

#
# object default
#

v  -0.5000 -0.1545 0.4755
v  -0.5000 0.0000 0.5000
v  -0.5000 -0.2939 0.4045
v  -0.5000 0.1545 0.4755
v  -0.5000 0.2939 0.4045
v  -0.5000 0.4045 0.2939
v  -0.5000 0.4755 0.1545
v  -0.5000 0.5000 -0.0000
v  -0.5000 0.4755 -0.1545
v  -0.5000 0.4045 -0.2939
v  -0.5000 0.2939 -0.4045
v  -0.5000 0.1545 -0.4755
v  -0.5000 0.0000 -0.5000
v  -0.5000 -0.1545 -0.4755
v  -0.5000 -0.2939 -0.4045
v  -0.5000 -0.4045 -0.2939
v  -0.5000 -0.4755 -0.1545
v  -0.5000 -0.5000 -0.0000
v  -0.5000 -0.4755 0.1545
v  -0.5000 -0.4045 0.2939
v  0.5000 -0.0000 0.0000
# 21 vertices

vn -1.0000 0.0000 -0.0000
vn 0.4472 -0.2764 0.8507
vn 0.4472 -0.5257 0.7236
vn 1.0000 -0.0000 0.0000
vn 0.4472 -0.7236 0.5257
vn 0.4472 -0.8507 0.2764
vn 0.4472 -0.8944 0.0000
vn 0.4472 -0.8507 -0.2764
vn 0.4472 -0.7236 -0.5257
vn 0.4472 -0.5257 -0.7236
vn 0.4472 -0.2764 -0.8507
vn 0.4472 -0.0000 -0.8944
vn 0.4472 0.2764 -0.8507
vn 0.4472 0.5257 -0.7236
vn 0.4472 0.7236 -0.5257
vn 0.4472 0.8507 -0.2764
vn 0.4472 0.8944 0.0000
vn 0.4472 0.8507 0.2764
vn 0.4472 0.7236 0.5257
vn 0.4472 0.5257 0.7236
vn 0.4472 0.2764 0.8507
vn 0.4472 0.0000 0.8944
# 22 vertex normals

vt 1.1000 0.0000 0.0000
vt 1.0000 0.0000 0.0000
vt 1.2000 0.0000 0.0000
vt 0.9000 0.0000 0.0000
vt 0.8000 0.0000 0.0000
vt 0.7000 0.0000 0.0000
vt 0.6000 0.0000 0.0000
vt 0.5000 0.0000 0.0000
vt 0.4000 0.0000 0.0000
vt 0.3000 0.0000 0.0000
vt 0.2000 0.0000 0.0000
vt 2.1000 0.0000 0.0000
vt 2.0000 0.0000 0.0000
vt 1.9000 0.0000 0.0000
vt 1.8000 0.0000 0.0000
vt 1.7000 0.0000 0.0000
vt 1.6000 0.0000 0.0000
vt 1.5000 0.0000 0.0000
vt 1.4000 0.0000 0.0000
vt 1.3000 0.0000 0.0000
vt 0.5000 1.0000 0.0000
vt -0.5000 0.0000 0.0000
vt -0.4000 0.0000 0.0000
vt -0.3000 0.0000 0.0000
vt -0.2000 0.0000 0.0000
vt -0.1000 0.0000 0.0000
vt 0.0000 0.0000 0.0000
vt 0.1000 0.0000 0.0000
# 28 texture coords

g default
s 1
f 1/1/1 2/2/1 3/3/1 
f 2/2/1 4/4/1 3/3/1 
f 4/4/1 5/5/1 3/3/1 
f 5/5/1 6/6/1 3/3/1 
f 6/6/1 7/7/1 3/3/1 
f 7/7/1 8/8/1 3/3/1 
f 8/8/1 9/9/1 3/3/1 
f 9/9/1 10/10/1 3/3/1 
f 10/10/1 11/11/1 3/3/1 
f 11/11/1 12/12/1 3/3/1 
f 12/12/1 13/13/1 3/3/1 
f 13/13/1 14/14/1 3/3/1 
f 14/14/1 15/15/1 3/3/1 
f 15/15/1 16/16/1 3/3/1 
f 16/16/1 17/17/1 3/3/1 
f 17/17/1 18/18/1 3/3/1 
f 18/18/1 19/19/1 3/3/1 
f 19/19/1 20/20/1 3/3/1 
f 1/1/2 3/3/3 21/21/4 
f 3/3/3 20/20/5 21/21/4 
f 20/20/5 19/19/6 21/21/4 
f 19/19/6 18/18/7 21/21/4 
f 18/22/7 17/23/8 21/21/4 
f 17/23/8 16/24/9 21/21/4 
f 16/24/9 15/25/10 21/21/4 
f 15/25/10 14/26/11 21/21/4 
f 14/26/11 13/27/12 21/21/4 
f 13/27/12 12/28/13 21/21/4 
f 12/28/13 11/11/14 21/21/4 
f 11/11/14 10/10/15 21/21/4 
f 10/10/15 9/9/16 21/21/4 
f 9/9/16 8/8/17 21/21/4 
f 8/8/17 7/7/18 21/21/4 
f 7/7/18 6/6/19 21/21/4 
f 6/6/19 5/5/20 21/21/4 
f 5/5/20 4/4/21 21/21/4 
f 4/4/21 2/2/22 21/21/4 
f 2/2/22 1/1/2 21/21/4 
# 38 faces

